<svg width="31" height="32" viewBox="0 0 31 32" fill="none" xmlns="http://www.w3.org/2000/svg">
<path d="M28.4168 13.3334V21.3334M27.6676 14.5627C27.8988 14.4574 28.0951 14.2844 28.232 14.0651C28.3689 13.8459 28.4405 13.5899 28.4379 13.3291C28.4352 13.0682 28.3586 12.8138 28.2173 12.5975C28.076 12.3812 27.8764 12.2124 27.6431 12.1121L16.5722 6.90674C16.2356 6.74827 15.87 6.66626 15.5001 6.66626C15.1302 6.66626 14.7646 6.74827 14.428 6.90674L3.35844 12.1067C3.12848 12.2107 2.93286 12.3816 2.79549 12.5985C2.65812 12.8154 2.58496 13.0689 2.58496 13.3281C2.58496 13.5872 2.65812 13.8407 2.79549 14.0576C2.93286 14.2746 3.12848 14.4454 3.35844 14.5494L14.428 19.7601C14.7646 19.9185 15.1302 20.0005 15.5001 20.0005C15.87 20.0005 16.2356 19.9185 16.5722 19.7601L27.6676 14.5627Z" stroke="#F6841F" stroke-width="2" stroke-linecap="round" stroke-linejoin="round"/>
<path d="M7.75 16.6667V21.3334C7.75 22.3943 8.56652 23.4117 10.0199 24.1618C11.4733 24.912 13.4446 25.3334 15.5 25.3334C17.5554 25.3334 19.5267 24.912 20.9801 24.1618C22.4335 23.4117 23.25 22.3943 23.25 21.3334V16.6667" stroke="#F6841F" stroke-width="2" stroke-linecap="round" stroke-linejoin="round"/>
</svg>
