<svg width="31" height="32" viewBox="0 0 31 32" fill="none" xmlns="http://www.w3.org/2000/svg">
<path d="M2.58317 7.02659L4.2365 5.33325L25.8332 27.6266L24.1928 29.3333L20.2144 25.2266C18.729 25.7333 17.1532 25.9999 15.4998 25.9999C9.0415 25.9999 3.52609 21.8533 1.2915 15.9999C2.18275 13.6533 3.60359 11.5866 5.41192 9.94659L2.58317 7.02659ZM15.4998 11.9999C16.5276 11.9999 17.5132 12.4213 18.2399 13.1715C18.9666 13.9216 19.3748 14.9391 19.3748 15.9999C19.3755 16.454 19.3012 16.9049 19.1553 17.3333L14.2082 12.2266C14.6231 12.0759 15.0599 11.9992 15.4998 11.9999ZM15.4998 5.99992C21.9582 5.99992 27.4736 10.1466 29.7082 15.9999C28.6534 18.7638 26.8621 21.163 24.5415 22.9199L22.7073 21.0133C24.4936 19.7378 25.9343 18.0121 26.8923 15.9999C25.8482 13.7997 24.227 11.9461 22.2131 10.6497C20.1992 9.35335 17.8733 8.66627 15.4998 8.66659C14.0919 8.66659 12.7098 8.90659 11.4182 9.33325L9.429 7.29325C11.289 6.46659 13.3428 5.99992 15.4998 5.99992ZM4.10734 15.9999C5.15145 18.2001 6.77263 20.0537 8.78657 21.3501C10.8005 22.6465 13.1264 23.3336 15.4998 23.3333C16.3911 23.3333 17.2694 23.2399 18.0832 23.0533L15.1382 19.9999C14.2394 19.9005 13.4007 19.4864 12.7615 18.8266C12.1223 18.1668 11.7212 17.301 11.6248 16.3733L7.23317 11.8266C5.95442 12.9599 4.88234 14.3733 4.10734 15.9999Z" fill="#169A4C"/>
</svg>
