<svg width="31" height="32" viewBox="0 0 31 32" fill="none" xmlns="http://www.w3.org/2000/svg">
<path fill-rule="evenodd" clip-rule="evenodd" d="M16.7918 17.3333C18.1621 17.3333 19.4763 17.8952 20.4452 18.8954C21.4142 19.8956 21.9585 21.2522 21.9585 22.6667V25.3333C21.9585 25.687 21.8224 26.0261 21.5802 26.2761C21.3379 26.5262 21.0094 26.6667 20.6668 26.6667C20.3243 26.6667 19.9957 26.5262 19.7535 26.2761C19.5112 26.0261 19.3752 25.687 19.3752 25.3333V22.6667C19.3752 21.9594 19.103 21.2811 18.6185 20.781C18.1341 20.281 17.477 20 16.7918 20H7.75016C7.06502 20 6.40794 20.281 5.92347 20.781C5.439 21.2811 5.16683 21.9594 5.16683 22.6667V25.3333C5.16683 25.687 5.03074 26.0261 4.78851 26.2761C4.54627 26.5262 4.21773 26.6667 3.87516 26.6667C3.53259 26.6667 3.20405 26.5262 2.96182 26.2761C2.71958 26.0261 2.5835 25.687 2.5835 25.3333V22.6667C2.5835 21.2522 3.12784 19.8956 4.09678 18.8954C5.06572 17.8952 6.37988 17.3333 7.75016 17.3333H16.7918ZM24.5418 17.3333C25.5695 17.3333 26.5552 17.7548 27.2819 18.5049C28.0086 19.2551 28.4168 20.2725 28.4168 21.3333V24C28.4168 24.3536 28.2807 24.6928 28.0385 24.9428C27.7963 25.1929 27.4677 25.3333 27.1252 25.3333C26.7826 25.3333 26.4541 25.1929 26.2118 24.9428C25.9696 24.6928 25.8335 24.3536 25.8335 24V21.3333C25.8335 20.9797 25.6974 20.6406 25.4552 20.3905C25.2129 20.1405 24.8844 20 24.5418 20H22.7128C22.2661 18.9436 21.5616 18.0248 20.6681 17.3333H24.5418ZM12.271 4C13.8126 4 15.291 4.63214 16.3811 5.75736C17.4711 6.88258 18.0835 8.4087 18.0835 10C18.0835 11.5913 17.4711 13.1174 16.3811 14.2426C15.291 15.3679 13.8126 16 12.271 16C10.7294 16 9.25099 15.3679 8.16094 14.2426C7.07088 13.1174 6.4585 11.5913 6.4585 10C6.4585 8.4087 7.07088 6.88258 8.16094 5.75736C9.25099 4.63214 10.7294 4 12.271 4ZM23.2502 8C24.2779 8 25.2635 8.42143 25.9902 9.17157C26.7169 9.92172 27.1252 10.9391 27.1252 12C27.1252 13.0609 26.7169 14.0783 25.9902 14.8284C25.2635 15.5786 24.2779 16 23.2502 16C22.2225 16 21.2368 15.5786 20.5101 14.8284C19.7834 14.0783 19.3752 13.0609 19.3752 12C19.3752 10.9391 19.7834 9.92172 20.5101 9.17157C21.2368 8.42143 22.2225 8 23.2502 8ZM12.271 6.66667C11.4146 6.66667 10.5932 7.01786 9.98763 7.64298C9.38204 8.2681 9.04183 9.11594 9.04183 10C9.04183 10.8841 9.38204 11.7319 9.98763 12.357C10.5932 12.9821 11.4146 13.3333 12.271 13.3333C13.1274 13.3333 13.9488 12.9821 14.5544 12.357C15.1599 11.7319 15.5002 10.8841 15.5002 10C15.5002 9.11594 15.1599 8.2681 14.5544 7.64298C13.9488 7.01786 13.1274 6.66667 12.271 6.66667ZM23.2502 10.6667C22.9076 10.6667 22.5791 10.8071 22.3368 11.0572C22.0946 11.3072 21.9585 11.6464 21.9585 12C21.9585 12.3536 22.0946 12.6928 22.3368 12.9428C22.5791 13.1929 22.9076 13.3333 23.2502 13.3333C23.5927 13.3333 23.9213 13.1929 24.1635 12.9428C24.4057 12.6928 24.5418 12.3536 24.5418 12C24.5418 11.6464 24.4057 11.3072 24.1635 11.0572C23.9213 10.8071 23.5927 10.6667 23.2502 10.6667Z" fill="#196FAC"/>
</svg>
