<svg width="47" height="47" viewBox="0 0 47 47" fill="none" xmlns="http://www.w3.org/2000/svg">
<path d="M29.3306 9.77734C28.2934 9.77734 27.2987 10.1894 26.5652 10.9228C25.8318 11.6562 25.4198 12.651 25.4198 13.6882V25.4206C25.4198 31.5411 28.6462 35.5751 34.7217 37.0945C34.9715 37.1589 35.2315 37.1733 35.4869 37.1369C35.7423 37.1004 35.9879 37.0137 36.2096 36.8819C36.4314 36.7501 36.6248 36.5757 36.7789 36.3688C36.9329 36.1619 37.0445 35.9265 37.1072 35.6763C37.1699 35.4261 37.1824 35.1659 37.1441 34.9108C37.1058 34.6557 37.0174 34.4107 36.884 34.1899C36.7506 33.9691 36.5749 33.7769 36.3668 33.6243C36.1588 33.4718 35.9227 33.3619 35.672 33.301C31.3173 32.2118 29.3306 29.7284 29.3306 25.4206V23.4652H35.1968C36.1835 23.4655 37.1338 23.0929 37.8573 22.422C38.5807 21.7511 39.0239 20.8316 39.0979 19.8477L39.1077 19.5544V13.6882C39.1077 12.651 38.6956 11.6562 37.9622 10.9228C37.2288 10.1894 36.2341 9.77734 35.1968 9.77734H29.3306ZM11.7319 9.77734C10.6947 9.77734 9.69994 10.1894 8.96651 10.9228C8.23309 11.6562 7.82106 12.651 7.82106 13.6882V25.4206C7.82106 31.5411 11.0475 35.5751 17.123 37.0945C17.3727 37.1589 17.6328 37.1733 17.8882 37.1369C18.1435 37.1004 18.3892 37.0137 18.6109 36.8819C18.8327 36.7501 19.0261 36.5757 19.1802 36.3688C19.3342 36.1619 19.4458 35.9265 19.5085 35.6763C19.5712 35.4261 19.5837 35.1659 19.5454 34.9108C19.5071 34.6557 19.4187 34.4107 19.2853 34.1899C19.1519 33.9691 18.9761 33.7769 18.7681 33.6243C18.5601 33.4718 18.324 33.3619 18.0733 33.301C13.7186 32.2118 11.7319 29.7284 11.7319 25.4206V23.4652H17.5981C18.5848 23.4655 19.5351 23.0929 20.2586 22.422C20.982 21.7511 21.4252 20.8316 21.4992 19.8477L21.5089 19.5544V13.6882C21.5089 12.651 21.0969 11.6562 20.3635 10.9228C19.6301 10.1894 18.6353 9.77734 17.5981 9.77734H11.7319Z" fill="#F6841F"/>
</svg>
