<svg width="31" height="32" viewBox="0 0 31 32" fill="none" xmlns="http://www.w3.org/2000/svg">
<path d="M3.875 16H5.16667M15.5 4V5.33333M25.8333 16H27.125M7.23333 7.46667L8.1375 8.4M23.7667 7.46667L22.8625 8.4M12.5292 22.6667H18.4708M11.625 21.3333C10.5406 20.4938 9.7396 19.3234 9.33543 17.9878C8.93127 16.6522 8.94444 15.2192 9.37309 13.8918C9.80173 12.5644 10.6241 11.4099 11.7237 10.5917C12.8234 9.77358 14.1445 9.33333 15.5 9.33333C16.8555 9.33333 18.1766 9.77358 19.2763 10.5917C20.3759 11.4099 21.1983 12.5644 21.6269 13.8918C22.0556 15.2192 22.0687 16.6522 21.6646 17.9878C21.2604 19.3234 20.4594 20.4938 19.375 21.3333C18.8707 21.8486 18.491 22.4793 18.2666 23.1742C18.0422 23.8691 17.9794 24.6087 18.0833 25.3333C18.0833 26.0406 17.8112 26.7189 17.3267 27.219C16.8422 27.719 16.1851 28 15.5 28C14.8149 28 14.1578 27.719 13.6733 27.219C13.1888 26.7189 12.9167 26.0406 12.9167 25.3333C13.0206 24.6087 12.9578 23.8691 12.7334 23.1742C12.509 22.4793 12.1293 21.8486 11.625 21.3333Z" stroke="#196FAC" stroke-width="2" stroke-linecap="round" stroke-linejoin="round"/>
</svg>
